<svg width="382" height="99" viewBox="0 0 382 99" fill="none" xmlns="http://www.w3.org/2000/svg">
<mask id="mask0_430_24" style="mask-type:alpha" maskUnits="userSpaceOnUse" x="0" y="0" width="382" height="99">
<rect width="382" height="99" fill="#D9D9D9"/>
</mask>
<g mask="url(#mask0_430_24)">
<path d="M372.515 98.9218C378.038 98.9218 382.515 94.4446 382.515 88.9218L382.515 49.4362L382.515 10.0361C382.515 4.51323 378.038 0.036087 372.515 0.0360805L46.7979 0.0356982C44.0207 0.0356949 41.3686 1.19062 39.4768 3.22385L2.8116 42.6301C-0.757997 46.4666 -0.760555 52.408 2.80574 56.2475L39.4762 95.7275C41.3682 97.7645 44.0229 98.9219 46.8031 98.9219L372.515 98.9218Z" fill="url(#paint0_linear_430_24)"/>
<path d="M345.28 54.5384C345.156 54.5384 345.156 54.4173 345.28 54.5384L344.662 54.1753L344.538 54.0542L329.946 43.8873C329.946 43.8873 329.823 43.8873 329.823 43.7663L329.575 43.5242L329.452 43.4032H329.204L325 40.4984L333.285 41.7087C333.656 41.7087 333.78 41.8297 334.151 41.9508C334.274 41.9508 334.522 42.0718 334.522 42.0718C334.893 42.1928 335.016 42.3139 335.264 42.4349C335.511 42.556 335.635 42.677 335.882 42.798C336.006 42.9191 336.253 43.0401 336.253 43.1611C336.377 43.2822 336.5 43.2822 336.624 43.4032C336.871 43.5242 336.995 43.6453 336.995 43.7663C337.366 44.1294 337.613 44.4925 337.984 44.7346L344.538 53.8122L344.662 53.9332L345.28 54.5384Z" fill="white"/>
<path d="M344.381 67.0184L343.787 66.1039L343.668 65.9896L325 40.4984L329.043 43.2418L329.756 43.6991L343.787 53.3011H343.905L344.381 53.6441C344.381 53.6441 344.5 53.6441 344.5 53.7584L345.095 53.3011L364 40.4984L344.976 66.1039L344.857 66.2182L344.381 67.0184Z" fill="white"/>
<path d="M344.624 49.8586L344.003 48.8836L343.879 48.7617L339.04 42.1804L343.879 43.1554H344.003L344.624 43.2773L345.244 43.1554L349.96 42.0586L345.244 48.8836V49.0054L344.624 49.8586Z" fill="white"/>
<path d="M364 40.4984L358.361 41.3384L356.219 41.6984C354.527 41.9384 352.948 42.8984 351.934 44.4584L345.957 53.5784L345.844 53.6984L345.28 54.5384L345.957 53.8184L346.069 53.6984L345.28 54.5384L360.504 43.0184L364 40.4984Z" fill="white"/>
<path d="M348.4 21.8298C348.4 26.9858 338.722 29.681 338.722 35.1887C338.594 36.4777 338.976 37.7667 339.613 38.9385C339.613 38.9385 335.92 35.6574 335.92 32.1419C335.92 28.6264 339.486 23.3532 339.486 23.3532C339.486 25.6968 340.504 26.3999 341.523 26.5171H341.651C342.797 26.5171 343.433 25.6968 343.433 24.525C343.433 23.3532 342.033 22.1813 342.033 19.8377C342.033 17.6112 345.089 13.9785 345.089 13.9785C347.254 16.3222 348.4 19.0174 348.4 21.8298Z" fill="white"/>
<path d="M345.434 40.4986C342.672 40.4986 340.6 38.205 340.6 35.4286V35.3078C340.6 29.1514 349.232 28.8078 349.232 20.4785C349.462 20.8407 351.188 23.7193 351.188 27.0993C351.188 31.3243 347.39 32.4107 347.39 34.4629C347.39 35.3079 347.736 35.9114 348.887 35.9114C349.002 35.9114 349.117 35.9114 349.232 35.7907C351.419 34.825 352.915 32.6521 353.03 30.1171C353.03 30.2378 354.181 40.4986 345.434 40.4986Z" fill="white"/>
<path d="M349.167 35.4714C349.291 35.4714 349.415 35.4714 349.539 35.354C348.301 35.706 343.72 36.762 343.72 33.7114C343.72 29.9569 350.529 29.1356 350.529 25.9677C350.529 23.9731 350.034 21.9785 348.92 20.2186C349.167 20.5706 351.52 23.6211 351.52 26.9064C351.52 31.0129 347.434 32.0688 347.434 34.0634C347.558 34.8847 348.053 35.4714 349.167 35.4714Z" fill="white"/>
<path d="M345.28 23.8457C345.28 26.7478 342.343 26.5156 342.16 26.3995H342.435C343.261 26.3995 343.72 25.5869 343.72 24.4261C343.72 23.2653 342.71 22.1044 342.71 19.7827C342.71 17.5771 344.913 13.9785 344.913 13.9785C344.179 15.4876 343.812 17.1128 343.72 18.738C343.72 21.4079 345.28 21.6401 345.28 23.8457Z" fill="white"/>
<path d="M343.017 79.0397L340.6 76.975H343.566L344.555 73.2585L345.434 76.975H348.4L345.983 79.0397L346.862 82.6185L344.445 80.4161L341.918 82.6185L343.017 79.0397Z" fill="white"/>
<path d="M357.057 79.0397L354.64 76.975H357.606L358.595 73.2585L359.474 76.975H362.44L360.023 79.0397L360.902 82.6185L358.485 80.4161L355.958 82.6185L357.057 79.0397Z" fill="white"/>
<path d="M329.46 79.0397L326.56 76.975H330.119L331.306 73.2585L332.361 76.975H335.92L333.02 79.0397L334.074 82.6185L331.174 80.4161L328.274 82.6185L329.46 79.0397Z" fill="white"/>
<path d="M113.336 44.6943L107.352 29.1623H111.048L115.602 41.7243H114.084L118.704 29.1623H122.356L116.306 44.6943H113.336ZM124.18 44.6943V29.1623H127.634V44.6943H124.18ZM126.82 44.6943V41.7023H135.334V44.6943H126.82ZM126.82 38.2043V35.3223H134.564V38.2043H126.82ZM126.82 32.1323V29.1623H135.224V32.1323H126.82ZM140.355 38.2923V35.7403H143.633C144.322 35.7403 144.85 35.5643 145.217 35.2123C145.598 34.8603 145.789 34.3837 145.789 33.7823C145.789 33.225 145.605 32.763 145.239 32.3963C144.872 32.0297 144.344 31.8463 143.655 31.8463H140.355V29.1623H144.051C145.077 29.1623 145.979 29.3603 146.757 29.7563C147.534 30.1377 148.143 30.673 148.583 31.3623C149.023 32.0517 149.243 32.8437 149.243 33.7383C149.243 34.6477 149.023 35.447 148.583 36.1363C148.143 36.811 147.527 37.339 146.735 37.7203C145.943 38.1017 145.011 38.2923 143.941 38.2923H140.355ZM137.715 44.6943V29.1623H141.169V44.6943H137.715ZM146.163 44.6943L141.323 38.0063L144.491 37.1483L150.255 44.6943H146.163ZM151.766 44.6943V29.1623H155.22V44.6943H151.766ZM158.211 44.6943V29.1623H161.665V44.6943H158.211ZM160.851 38.6003V35.6303H168.617V38.6003H160.851ZM160.851 32.1323V29.1623H168.969V32.1323H160.851ZM171.187 44.6943V29.1623H174.641V44.6943H171.187ZM177.633 44.6943V29.1623H181.087V44.6943H177.633ZM180.273 44.6943V41.7023H188.787V44.6943H180.273ZM180.273 38.2043V35.3223H188.017V38.2043H180.273ZM180.273 32.1323V29.1623H188.677V32.1323H180.273ZM193.5 44.6943V41.6583H197.35C198.289 41.6583 199.11 41.475 199.814 41.1083C200.518 40.727 201.061 40.177 201.442 39.4583C201.823 38.7397 202.014 37.889 202.014 36.9063C202.014 35.9237 201.816 35.0803 201.42 34.3763C201.039 33.6723 200.496 33.1297 199.792 32.7483C199.103 32.367 198.289 32.1763 197.35 32.1763H193.39V29.1623H197.394C198.567 29.1623 199.645 29.353 200.628 29.7343C201.625 30.101 202.491 30.6363 203.224 31.3403C203.972 32.0297 204.544 32.851 204.94 33.8043C205.351 34.743 205.556 35.7843 205.556 36.9283C205.556 38.0577 205.351 39.099 204.94 40.0523C204.544 41.0057 203.979 41.827 203.246 42.5163C202.513 43.2057 201.647 43.741 200.65 44.1223C199.667 44.5037 198.597 44.6943 197.438 44.6943H193.5ZM191.168 44.6943V29.1623H194.622V44.6943H191.168ZM210.154 44.6943L216.314 29.1623H219.438L225.532 44.6943H221.88L217.216 31.8023H218.47L213.74 44.6943H210.154ZM213.652 41.8783V39.0623H222.122V41.8783H213.652ZM233.664 44.9363C232.534 44.9363 231.471 44.731 230.474 44.3203C229.491 43.9097 228.633 43.345 227.9 42.6263C227.166 41.893 226.587 41.0423 226.162 40.0743C225.751 39.0917 225.546 38.0357 225.546 36.9063C225.546 35.777 225.758 34.7283 226.184 33.7603C226.609 32.7923 227.196 31.949 227.944 31.2303C228.706 30.497 229.594 29.9323 230.606 29.5363C231.618 29.1257 232.703 28.9203 233.862 28.9203C235.196 28.9203 236.406 29.1623 237.492 29.6463C238.592 30.1303 239.501 30.7977 240.22 31.6483L237.866 34.0023C237.367 33.357 236.78 32.873 236.106 32.5503C235.431 32.2277 234.668 32.0663 233.818 32.0663C232.908 32.0663 232.094 32.2717 231.376 32.6823C230.657 33.0783 230.092 33.643 229.682 34.3763C229.286 35.095 229.088 35.9383 229.088 36.9063C229.088 37.8743 229.286 38.725 229.682 39.4583C230.078 40.1917 230.62 40.7637 231.31 41.1743C231.999 41.585 232.791 41.7903 233.686 41.7903C234.595 41.7903 235.365 41.6217 235.996 41.2843C236.641 40.9323 237.132 40.4337 237.47 39.7883C237.822 39.1283 237.998 38.329 237.998 37.3903L240.286 38.9303L233.356 38.8203V35.8943H241.518V36.4003C241.518 38.263 241.18 39.8323 240.506 41.1083C239.846 42.3697 238.922 43.323 237.734 43.9683C236.56 44.6137 235.204 44.9363 233.664 44.9363ZM243.611 44.6943V29.1623H247.065V44.6943H243.611ZM246.251 44.6943V41.7023H254.765V44.6943H246.251ZM246.251 38.2043V35.3223H253.995V38.2043H246.251ZM246.251 32.1323V29.1623H254.655V32.1323H246.251ZM257.146 44.6943V29.1623H259.566L260.6 32.2643V44.6943H257.146ZM267.86 44.6943L258.708 32.9683L259.566 29.1623L268.718 40.8883L267.86 44.6943ZM267.86 44.6943L266.936 41.5923V29.1623H270.39V44.6943H267.86ZM280.759 44.9363C279.6 44.9363 278.522 44.7383 277.525 44.3423C276.542 43.9317 275.677 43.3597 274.929 42.6263C274.195 41.893 273.623 41.0423 273.213 40.0743C272.802 39.0917 272.597 38.0357 272.597 36.9063C272.597 35.777 272.802 34.7283 273.213 33.7603C273.623 32.7777 274.195 31.927 274.929 31.2083C275.662 30.4897 276.52 29.9323 277.503 29.5363C278.5 29.1257 279.578 28.9203 280.737 28.9203C281.969 28.9203 283.061 29.1183 284.015 29.5143C284.983 29.9103 285.826 30.453 286.545 31.1423L284.235 33.4743C283.824 33.0343 283.325 32.6897 282.739 32.4403C282.167 32.191 281.499 32.0663 280.737 32.0663C280.062 32.0663 279.439 32.1837 278.867 32.4183C278.309 32.6383 277.825 32.961 277.415 33.3863C277.019 33.8117 276.703 34.325 276.469 34.9263C276.249 35.5277 276.139 36.1877 276.139 36.9063C276.139 37.6397 276.249 38.307 276.469 38.9083C276.703 39.5097 277.019 40.023 277.415 40.4483C277.825 40.8737 278.309 41.2037 278.867 41.4383C279.439 41.673 280.062 41.7903 280.737 41.7903C281.529 41.7903 282.218 41.6657 282.805 41.4163C283.391 41.167 283.897 40.8223 284.323 40.3823L286.655 42.7143C285.907 43.4037 285.049 43.9463 284.081 44.3423C283.127 44.7383 282.02 44.9363 280.759 44.9363ZM292.708 38.9083L286.724 29.1623H290.728L295.326 37.0383H292.752L297.35 29.1623H301.266L295.238 38.9083H292.708ZM292.29 44.6943V37.3243H295.744V44.6943H292.29Z" fill="white"/>
<path d="M110.828 73.6943V70.6583H114.678C115.617 70.6583 116.438 70.475 117.142 70.1083C117.846 69.727 118.389 69.177 118.77 68.4583C119.151 67.7397 119.342 66.889 119.342 65.9063C119.342 64.9237 119.144 64.0803 118.748 63.3763C118.367 62.6723 117.824 62.1297 117.12 61.7483C116.431 61.367 115.617 61.1763 114.678 61.1763H110.718V58.1623H114.722C115.895 58.1623 116.973 58.353 117.956 58.7343C118.953 59.101 119.819 59.6363 120.552 60.3403C121.3 61.0297 121.872 61.851 122.268 62.8043C122.679 63.743 122.884 64.7843 122.884 65.9283C122.884 67.0577 122.679 68.099 122.268 69.0523C121.872 70.0057 121.307 70.827 120.574 71.5163C119.841 72.2057 118.975 72.741 117.978 73.1223C116.995 73.5037 115.925 73.6943 114.766 73.6943H110.828ZM108.496 73.6943V58.1623H111.95V73.6943H108.496ZM125.082 73.6943V58.1623H128.536V73.6943H125.082ZM127.722 73.6943V70.7023H136.236V73.6943H127.722ZM127.722 67.2043V64.3223H135.466V67.2043H127.722ZM127.722 61.1323V58.1623H136.126V61.1323H127.722ZM142.894 73.9363C141.618 73.9363 140.518 73.731 139.594 73.3203C138.685 72.895 137.849 72.257 137.086 71.4063L139.33 69.1843C139.829 69.7563 140.379 70.2037 140.98 70.5263C141.596 70.8343 142.308 70.9883 143.114 70.9883C143.848 70.9883 144.412 70.8563 144.808 70.5923C145.219 70.3283 145.424 69.9617 145.424 69.4923C145.424 69.067 145.292 68.7223 145.028 68.4583C144.764 68.1943 144.412 67.967 143.972 67.7763C143.547 67.5857 143.07 67.4023 142.542 67.2263C142.029 67.0503 141.516 66.8523 141.002 66.6323C140.489 66.3977 140.012 66.1117 139.572 65.7743C139.147 65.4223 138.802 64.9897 138.538 64.4763C138.274 63.9483 138.142 63.2883 138.142 62.4963C138.142 61.543 138.37 60.7217 138.824 60.0323C139.294 59.343 139.939 58.8223 140.76 58.4703C141.582 58.1037 142.528 57.9203 143.598 57.9203C144.684 57.9203 145.674 58.111 146.568 58.4923C147.478 58.8737 148.226 59.3943 148.812 60.0543L146.568 62.2763C146.099 61.7923 145.622 61.433 145.138 61.1983C144.669 60.9637 144.134 60.8463 143.532 60.8463C142.931 60.8463 142.454 60.9637 142.102 61.1983C141.75 61.4183 141.574 61.741 141.574 62.1663C141.574 62.5623 141.706 62.885 141.97 63.1343C142.234 63.369 142.579 63.5743 143.004 63.7503C143.444 63.9263 143.921 64.1023 144.434 64.2783C144.962 64.4543 145.483 64.6597 145.996 64.8943C146.51 65.129 146.979 65.4297 147.404 65.7963C147.844 66.1483 148.196 66.603 148.46 67.1603C148.724 67.703 148.856 68.3777 148.856 69.1843C148.856 70.6657 148.328 71.8317 147.272 72.6823C146.216 73.5183 144.757 73.9363 142.894 73.9363ZM151.057 73.6943V58.1623H154.511V73.6943H151.057ZM164.828 73.9363C163.699 73.9363 162.635 73.731 161.638 73.3203C160.655 72.9097 159.797 72.345 159.064 71.6263C158.331 70.893 157.751 70.0423 157.326 69.0743C156.915 68.0917 156.71 67.0357 156.71 65.9063C156.71 64.777 156.923 63.7283 157.348 62.7603C157.773 61.7923 158.36 60.949 159.108 60.2303C159.871 59.497 160.758 58.9323 161.77 58.5363C162.782 58.1257 163.867 57.9203 165.026 57.9203C166.361 57.9203 167.571 58.1623 168.656 58.6463C169.756 59.1303 170.665 59.7977 171.384 60.6483L169.03 63.0023C168.531 62.357 167.945 61.873 167.27 61.5503C166.595 61.2277 165.833 61.0663 164.982 61.0663C164.073 61.0663 163.259 61.2717 162.54 61.6823C161.821 62.0783 161.257 62.643 160.846 63.3763C160.45 64.095 160.252 64.9383 160.252 65.9063C160.252 66.8743 160.45 67.725 160.846 68.4583C161.242 69.1917 161.785 69.7637 162.474 70.1743C163.163 70.585 163.955 70.7903 164.85 70.7903C165.759 70.7903 166.529 70.6217 167.16 70.2843C167.805 69.9323 168.297 69.4337 168.634 68.7883C168.986 68.1283 169.162 67.329 169.162 66.3903L171.45 67.9303L164.52 67.8203V64.8943H172.682V65.4003C172.682 67.263 172.345 68.8323 171.67 70.1083C171.01 71.3697 170.086 72.323 168.898 72.9683C167.725 73.6137 166.368 73.9363 164.828 73.9363ZM174.775 73.6943V58.1623H177.195L178.229 61.2643V73.6943H174.775ZM185.489 73.6943L176.337 61.9683L177.195 58.1623L186.347 69.8883L185.489 73.6943ZM185.489 73.6943L184.565 70.5923V58.1623H188.019V73.6943H185.489ZM193.657 67.2923V64.7403H196.935C197.625 64.7403 198.153 64.5643 198.519 64.2123C198.901 63.8603 199.091 63.3837 199.091 62.7823C199.091 62.225 198.908 61.763 198.541 61.3963C198.175 61.0297 197.647 60.8463 196.957 60.8463H193.657V58.1623H197.353C198.38 58.1623 199.282 58.3603 200.059 58.7563C200.837 59.1377 201.445 59.673 201.885 60.3623C202.325 61.0517 202.545 61.8437 202.545 62.7383C202.545 63.6477 202.325 64.447 201.885 65.1363C201.445 65.811 200.829 66.339 200.037 66.7203C199.245 67.1017 198.314 67.2923 197.243 67.2923H193.657ZM191.017 73.6943V58.1623H194.471V73.6943H191.017ZM199.465 73.6943L194.625 67.0063L197.793 66.1483L203.557 73.6943H199.465ZM211.273 73.9363C209.997 73.9363 208.868 73.665 207.885 73.1223C206.917 72.5797 206.155 71.8317 205.597 70.8783C205.055 69.9103 204.783 68.8103 204.783 67.5783V58.1623H208.259V67.7763C208.259 68.3923 208.391 68.9277 208.655 69.3823C208.919 69.837 209.279 70.189 209.733 70.4383C210.203 70.673 210.716 70.7903 211.273 70.7903C211.86 70.7903 212.373 70.673 212.813 70.4383C213.253 70.189 213.598 69.8443 213.847 69.4043C214.111 68.9497 214.243 68.4143 214.243 67.7983V58.1623H217.719V67.6003C217.719 68.8323 217.448 69.925 216.905 70.8783C216.363 71.8317 215.607 72.5797 214.639 73.1223C213.671 73.665 212.549 73.9363 211.273 73.9363ZM224.965 73.9363C223.689 73.9363 222.589 73.731 221.665 73.3203C220.755 72.895 219.919 72.257 219.157 71.4063L221.401 69.1843C221.899 69.7563 222.449 70.2037 223.051 70.5263C223.667 70.8343 224.378 70.9883 225.185 70.9883C225.918 70.9883 226.483 70.8563 226.879 70.5923C227.289 70.3283 227.495 69.9617 227.495 69.4923C227.495 69.067 227.363 68.7223 227.099 68.4583C226.835 68.1943 226.483 67.967 226.043 67.7763C225.617 67.5857 225.141 67.4023 224.613 67.2263C224.099 67.0503 223.586 66.8523 223.073 66.6323C222.559 66.3977 222.083 66.1117 221.643 65.7743C221.217 65.4223 220.873 64.9897 220.609 64.4763C220.345 63.9483 220.213 63.2883 220.213 62.4963C220.213 61.543 220.44 60.7217 220.895 60.0323C221.364 59.343 222.009 58.8223 222.831 58.4703C223.652 58.1037 224.598 57.9203 225.669 57.9203C226.754 57.9203 227.744 58.111 228.639 58.4923C229.548 58.8737 230.296 59.3943 230.883 60.0543L228.639 62.2763C228.169 61.7923 227.693 61.433 227.209 61.1983C226.739 60.9637 226.204 60.8463 225.603 60.8463C225.001 60.8463 224.525 60.9637 224.173 61.1983C223.821 61.4183 223.645 61.741 223.645 62.1663C223.645 62.5623 223.777 62.885 224.041 63.1343C224.305 63.369 224.649 63.5743 225.075 63.7503C225.515 63.9263 225.991 64.1023 226.505 64.2783C227.033 64.4543 227.553 64.6597 228.067 64.8943C228.58 65.129 229.049 65.4297 229.475 65.7963C229.915 66.1483 230.267 66.603 230.531 67.1603C230.795 67.703 230.927 68.3777 230.927 69.1843C230.927 70.6657 230.399 71.8317 229.343 72.6823C228.287 73.5183 226.827 73.9363 224.965 73.9363ZM233.127 73.6943V58.1623H236.581V73.6943H233.127ZM242.741 73.6943V58.1623H246.217V73.6943H242.741ZM235.195 67.2043V64.2123H243.885V67.2043H235.195ZM250.891 73.9143C250.481 73.9143 250.136 73.775 249.857 73.4963C249.593 73.203 249.461 72.8583 249.461 72.4623C249.461 72.0517 249.593 71.7143 249.857 71.4503C250.136 71.1717 250.481 71.0323 250.891 71.0323C251.302 71.0323 251.639 71.1717 251.903 71.4503C252.182 71.7143 252.321 72.0517 252.321 72.4623C252.321 72.8583 252.182 73.203 251.903 73.4963C251.639 73.775 251.302 73.9143 250.891 73.9143ZM262.021 73.9143C260.921 73.9143 259.902 73.7163 258.963 73.3203C258.024 72.9097 257.203 72.345 256.499 71.6263C255.81 70.9077 255.274 70.0717 254.893 69.1183C254.512 68.165 254.321 67.1457 254.321 66.0603C254.321 64.9603 254.512 63.9337 254.893 62.9803C255.274 62.027 255.81 61.1983 256.499 60.4943C257.203 59.7757 258.017 59.2183 258.941 58.8223C259.88 58.4117 260.899 58.2063 261.999 58.2063C263.202 58.2063 264.258 58.4117 265.167 58.8223C266.076 59.233 266.883 59.7903 267.587 60.4943L266.157 61.9243C265.673 61.3817 265.079 60.9563 264.375 60.6483C263.686 60.3403 262.894 60.1863 261.999 60.1863C261.192 60.1863 260.452 60.333 259.777 60.6263C259.102 60.905 258.516 61.3083 258.017 61.8363C257.518 62.3643 257.13 62.9877 256.851 63.7063C256.587 64.425 256.455 65.2097 256.455 66.0603C256.455 66.911 256.587 67.6957 256.851 68.4143C257.13 69.133 257.518 69.7563 258.017 70.2843C258.516 70.8123 259.102 71.223 259.777 71.5163C260.452 71.795 261.192 71.9343 261.999 71.9343C262.952 71.9343 263.781 71.7803 264.485 71.4723C265.189 71.1497 265.783 70.717 266.267 70.1743L267.697 71.5823C266.993 72.3157 266.164 72.8877 265.211 73.2983C264.272 73.709 263.209 73.9143 262.021 73.9143ZM276.567 73.9143C275.481 73.9143 274.469 73.7163 273.531 73.3203C272.592 72.9097 271.771 72.345 271.067 71.6263C270.363 70.893 269.813 70.0497 269.417 69.0963C269.035 68.143 268.845 67.1237 268.845 66.0383C268.845 64.9383 269.035 63.919 269.417 62.9803C269.813 62.027 270.355 61.191 271.045 60.4723C271.749 59.7537 272.563 59.1963 273.487 58.8003C274.425 58.4043 275.437 58.2063 276.523 58.2063C277.608 58.2063 278.613 58.4043 279.537 58.8003C280.475 59.1963 281.297 59.7537 282.001 60.4723C282.705 61.191 283.255 62.027 283.651 62.9803C284.047 63.9337 284.245 64.9603 284.245 66.0603C284.245 67.1457 284.047 68.165 283.651 69.1183C283.255 70.0717 282.705 70.9077 282.001 71.6263C281.311 72.345 280.497 72.9097 279.559 73.3203C278.635 73.7163 277.637 73.9143 276.567 73.9143ZM276.523 71.9343C277.623 71.9343 278.583 71.685 279.405 71.1863C280.241 70.673 280.901 69.9763 281.385 69.0963C281.869 68.2017 282.111 67.1823 282.111 66.0383C282.111 65.1877 281.971 64.4103 281.693 63.7063C281.414 62.9877 281.025 62.3643 280.527 61.8363C280.028 61.3083 279.441 60.905 278.767 60.6263C278.092 60.333 277.344 60.1863 276.523 60.1863C275.437 60.1863 274.477 60.4357 273.641 60.9343C272.819 61.433 272.167 62.1223 271.683 63.0023C271.213 63.8823 270.979 64.8943 270.979 66.0383C270.979 66.889 271.111 67.681 271.375 68.4143C271.653 69.133 272.035 69.7563 272.519 70.2843C273.017 70.7977 273.604 71.201 274.279 71.4943C274.968 71.7877 275.716 71.9343 276.523 71.9343ZM287.081 73.6943V58.4263H288.533L295.001 69.0523H294.011L300.479 58.4263H301.931V73.6943H299.863V62.0563L300.347 62.1883L295.243 70.5703H293.791L288.687 62.1883L289.149 62.0563V73.6943H287.081Z" fill="white"/>
<rect x="8" y="49.575" width="59.2281" height="59.2281" rx="6" transform="rotate(-45 8 49.575)" fill="#0181DD"/>
<path fill-rule="evenodd" clip-rule="evenodd" d="M44.9906 57.8541L59.799 42.2271C60.4721 41.5168 61.5565 41.5168 62.2296 42.2271L64.1368 44.2396C64.8099 44.95 64.8099 46.0944 64.1368 46.7652L46.2246 65.7071C45.5515 66.4174 44.4671 66.4174 43.794 65.7071L35.1184 56.5518C34.4827 55.881 34.4827 54.7366 35.1184 54.0263L37.0629 52.0137C37.6986 51.3034 38.7831 51.3034 39.4562 52.0137L44.9906 57.8541Z" fill="white"/>
</g>
<defs>
<linearGradient id="paint0_linear_430_24" x1="386.43" y1="3.95152" x2="158.82" y2="-142.126" gradientUnits="userSpaceOnUse">
<stop stop-color="#06245C"/>
<stop offset="1" stop-color="#03122C"/>
</linearGradient>
</defs>
</svg>
